<svg width="214" height="60" viewBox="0 0 214 60" fill="none" xmlns="http://www.w3.org/2000/svg">
<g style="mix-blend-mode:hard-light" opacity="0.99">
<path d="M53.18 43.49C53.2213 44.3167 53.3247 45.1227 53.49 45.908C53.6967 46.6933 53.9447 47.272 54.234 47.644C53.862 48.016 53.2833 48.45 52.498 48.946C51.754 49.442 50.886 49.8347 49.894 50.124C48.9433 50.4547 47.9307 50.5993 46.856 50.558C45.244 50.4753 43.942 49.7933 42.95 48.512C41.9993 47.2307 41.5033 45.6393 41.462 43.738C41.462 43.366 41.462 42.684 41.462 41.692C41.462 40.6587 41.462 39.5633 41.462 38.406C41.462 37.2487 41.462 36.298 41.462 35.554C41.462 34.8513 41.276 34.1693 40.904 33.508C40.5733 32.8467 40.1807 32.454 39.726 32.33C39.106 32.1233 38.5893 32.4953 38.176 33.446C38.0933 33.6527 37.8247 34.1693 37.37 34.996C36.9153 35.7813 36.3987 36.7113 35.82 37.786C35.2827 38.8607 34.766 39.9353 34.27 41.01C33.8153 42.0847 33.5053 43.0147 33.34 43.8C33.1747 44.544 33.278 44.9987 33.65 45.164C33.4847 45.5773 33.1747 46.1767 32.72 46.962C32.3067 47.7473 31.604 48.4293 30.612 49.008C29.6613 49.5453 28.2973 49.752 26.52 49.628C25.5693 49.5453 24.35 48.9667 22.862 47.892C21.374 46.8173 19.948 44.854 18.584 42.002C17.3027 39.274 16.2487 37.4347 15.422 36.484C14.6367 35.492 14.058 35.0373 13.686 35.12C13.3553 35.1613 13.0867 35.3887 12.88 35.802C12.7147 36.2153 12.5493 36.794 12.384 37.538C12.3013 37.91 12.26 38.53 12.26 39.398C12.26 40.266 12.3013 41.2373 12.384 42.312C12.4667 43.3867 12.6113 44.3993 12.818 45.35C13.066 46.3007 13.376 47.024 13.748 47.52C13.4173 47.7267 12.818 48.078 11.95 48.574C11.1233 49.07 10.1727 49.5247 9.098 49.938C8.06467 50.31 7.052 50.496 6.06 50.496C4.572 50.4547 3.332 50.062 2.34 49.318C1.348 48.5327 0.748667 47.0033 0.542 44.73C0.500667 44.358 0.48 43.304 0.48 41.568C0.48 39.832 0.48 37.6413 0.48 34.996C0.48 32.3507 0.48 29.5193 0.48 26.502C0.48 23.4433 0.48 20.426 0.48 17.45C0.48 14.474 0.48 11.746 0.48 9.266C0.521333 6.786 0.542 4.802 0.542 3.314C0.542 1.826 0.542 1.082 0.542 1.082C0.996667 0.999332 1.76133 0.978666 2.836 1.02C3.91067 1.06133 5.08867 1.22666 6.37 1.516C7.65133 1.80533 8.82933 2.28066 9.904 2.942C10.9787 3.562 11.7227 4.45067 12.136 5.608C12.136 5.608 12.322 6.00067 12.694 6.786C13.1073 7.53 13.6447 8.522 14.306 9.762C14.9673 10.9607 15.67 12.2627 16.414 13.668C17.1993 15.0733 17.9433 16.458 18.646 17.822C19.39 19.186 20.0307 20.3847 20.568 21.418C21.1467 22.4513 21.5393 23.1747 21.746 23.588C22.4487 24.7867 23.11 25.6133 23.73 26.068C24.3913 26.5227 25.094 26.7707 25.838 26.812C27.3673 26.812 28.8347 25.634 30.24 23.278C30.4467 22.906 30.86 22.1207 31.48 20.922C32.1 19.682 32.8233 18.2147 33.65 16.52C34.4767 14.8253 35.324 13.0893 36.192 11.312C37.1013 9.53466 37.928 7.88133 38.672 6.352C39.416 4.78133 40.0153 3.52066 40.47 2.57C40.966 1.578 41.214 1.082 41.214 1.082C41.5033 1.04067 41.9167 1.02 42.454 1.02C43.0327 0.978666 43.6527 0.999332 44.314 1.082C45.4713 1.16466 46.6907 1.392 47.972 1.764C49.2947 2.136 50.4313 2.71466 51.382 3.5C52.374 4.28533 52.932 5.33933 53.056 6.662C53.1387 7.36466 53.2007 8.522 53.242 10.134C53.2833 11.7047 53.304 13.5853 53.304 15.776C53.304 17.9253 53.304 20.2193 53.304 22.658C53.304 25.0967 53.2833 27.494 53.242 29.85C53.242 32.206 53.2213 34.376 53.18 36.36C53.18 38.344 53.18 39.9767 53.18 41.258C53.18 42.498 53.18 43.242 53.18 43.49ZM94.6745 38.778C94.7158 39.6873 94.7778 40.8033 94.8605 42.126C94.9845 43.4487 95.2531 44.73 95.6665 45.97C96.0798 47.21 96.7411 48.202 97.6505 48.946C96.6171 49.6487 95.5631 50.1447 94.4885 50.434C93.4138 50.7647 92.3598 50.8473 91.3265 50.682C91.0371 50.5993 90.7271 50.496 90.3965 50.372C90.0658 50.2893 89.6111 50.1653 89.0325 50C88.0818 49.7107 86.9658 49.6487 85.6845 49.814C84.4031 49.9793 83.0598 50.186 81.6545 50.434C80.2905 50.7233 78.9471 50.868 77.6245 50.868C75.4751 50.868 73.3258 50.496 71.1765 49.752C69.0271 48.9667 67.0845 47.768 65.3485 46.156C63.6125 44.544 62.2898 42.498 61.3805 40.018C60.4711 37.538 60.2025 34.562 60.5745 31.09C60.8225 28.6927 61.5045 26.502 62.6205 24.518C63.7365 22.4927 65.1005 20.7567 66.7125 19.31C68.3658 17.822 70.1018 16.6853 71.9205 15.9C73.7805 15.0733 75.5785 14.6807 77.3145 14.722C78.6371 14.7633 79.6498 14.8047 80.3525 14.846C81.0965 14.8873 82.0471 14.9907 83.2045 15.156C83.9071 15.2387 84.7958 15.1353 85.8705 14.846C86.9451 14.5567 88.0198 14.2467 89.0945 13.916C90.2105 13.544 91.1611 13.358 91.9465 13.358C93.1451 13.3167 93.9925 13.358 94.4885 13.482C94.9845 13.5647 95.3978 13.6473 95.7285 13.73C95.4805 14.474 95.2738 15.59 95.1085 17.078C94.9431 18.566 94.8191 20.2607 94.7365 22.162C94.6951 24.022 94.6538 25.9647 94.6125 27.99C94.5711 30.0153 94.5505 31.958 94.5505 33.818C94.5918 35.678 94.6331 37.3313 94.6745 38.778ZM71.3625 33.074C71.4451 35.1407 71.8171 36.7527 72.4785 37.91C73.1811 39.026 74.0078 39.8113 74.9585 40.266C75.9505 40.7207 76.9011 40.948 77.8105 40.948C79.6291 40.9893 80.9725 40.2867 81.8405 38.84C82.7085 37.3933 83.1218 35.3887 83.0805 32.826C83.0805 32.1233 82.9978 31.2967 82.8325 30.346C82.7085 29.3953 82.4605 28.4653 82.0885 27.556C81.7578 26.6467 81.2825 25.882 80.6625 25.262C80.0838 24.642 79.3191 24.332 78.3685 24.332C76.4671 24.332 74.7931 25.0347 73.3465 26.44C71.9411 27.8453 71.2798 30.0567 71.3625 33.074ZM136.348 14.04C136.431 15.9413 136.451 17.7807 136.41 19.558C136.41 21.294 136.41 22.596 136.41 23.464C136.41 23.9187 136.41 24.9933 136.41 26.688C136.451 28.3827 136.472 30.4287 136.472 32.826C136.513 35.2233 136.513 37.7033 136.472 40.266C136.431 42.8287 136.327 45.2053 136.162 47.396C135.997 49.7933 135.48 51.9013 134.612 53.72C133.785 55.5387 132.566 56.882 130.954 57.75C129.342 58.618 127.275 58.866 124.754 58.494C122.853 58.2047 121.406 57.626 120.414 56.758C119.463 55.89 118.843 54.8773 118.554 53.72C118.306 52.604 118.306 51.4467 118.554 50.248C118.843 49.0907 119.257 48.0573 119.794 47.148C120.166 47.6027 120.662 48.0987 121.282 48.636C121.943 49.132 122.646 49.5247 123.39 49.814C124.175 50.062 124.919 50.1033 125.622 49.938C126.077 49.814 126.428 49.5867 126.676 49.256C126.924 48.884 127.007 48.45 126.924 47.954C126.841 47.458 126.242 46.9 125.126 46.28C124.051 45.6187 122.646 45.3293 120.91 45.412C120.249 45.4533 119.732 45.4947 119.36 45.536C118.988 45.5773 118.554 45.598 118.058 45.598C115.206 45.598 112.581 45.0193 110.184 43.862C107.787 42.7047 105.885 40.9273 104.48 38.53C103.075 36.1327 102.455 33.074 102.62 29.354C102.744 26.9567 103.323 24.8073 104.356 22.906C105.389 20.9633 106.712 19.3307 108.324 18.008C109.977 16.644 111.713 15.6313 113.532 14.97C115.392 14.2673 117.19 13.978 118.926 14.102C119.133 14.102 119.546 14.164 120.166 14.288C120.786 14.412 121.406 14.536 122.026 14.66C122.646 14.7427 123.059 14.8047 123.266 14.846C124.713 15.094 126.325 15.1353 128.102 14.97C129.921 14.7633 131.471 14.536 132.752 14.288C133.579 14.164 134.385 14.102 135.17 14.102C135.955 14.0607 136.348 14.04 136.348 14.04ZM117.934 24.89C116.281 25.0553 115.041 25.6753 114.214 26.75C113.429 27.8247 113.222 29.168 113.594 30.78C113.759 31.524 114.152 32.268 114.772 33.012C115.433 33.7147 116.219 34.2727 117.128 34.686C118.037 35.0993 118.947 35.2647 119.856 35.182C120.765 35.0993 121.571 34.9547 122.274 34.748C122.977 34.5 123.535 34.004 123.948 33.26C124.361 32.516 124.568 31.338 124.568 29.726C124.568 28.114 124.237 26.9567 123.576 26.254C122.956 25.51 122.129 25.076 121.096 24.952C120.104 24.7867 119.05 24.766 117.934 24.89ZM176.459 14.04C176.542 15.9413 176.563 17.7807 176.521 19.558C176.521 21.294 176.521 22.596 176.521 23.464C176.521 23.9187 176.521 24.9933 176.521 26.688C176.563 28.3827 176.583 30.4287 176.583 32.826C176.625 35.2233 176.625 37.7033 176.583 40.266C176.542 42.8287 176.439 45.2053 176.273 47.396C176.108 49.7933 175.591 51.9013 174.723 53.72C173.897 55.5387 172.677 56.882 171.065 57.75C169.453 58.618 167.387 58.866 164.865 58.494C162.964 58.2047 161.517 57.626 160.525 56.758C159.575 55.89 158.955 54.8773 158.665 53.72C158.417 52.604 158.417 51.4467 158.665 50.248C158.955 49.0907 159.368 48.0573 159.905 47.148C160.277 47.6027 160.773 48.0987 161.393 48.636C162.055 49.132 162.757 49.5247 163.501 49.814C164.287 50.062 165.031 50.1033 165.733 49.938C166.188 49.814 166.539 49.5867 166.787 49.256C167.035 48.884 167.118 48.45 167.035 47.954C166.953 47.458 166.353 46.9 165.237 46.28C164.163 45.6187 162.757 45.3293 161.021 45.412C160.36 45.4533 159.843 45.4947 159.471 45.536C159.099 45.5773 158.665 45.598 158.169 45.598C155.317 45.598 152.693 45.0193 150.295 43.862C147.898 42.7047 145.997 40.9273 144.591 38.53C143.186 36.1327 142.566 33.074 142.731 29.354C142.855 26.9567 143.434 24.8073 144.467 22.906C145.501 20.9633 146.823 19.3307 148.435 18.008C150.089 16.644 151.825 15.6313 153.643 14.97C155.503 14.2673 157.301 13.978 159.037 14.102C159.244 14.102 159.657 14.164 160.277 14.288C160.897 14.412 161.517 14.536 162.137 14.66C162.757 14.7427 163.171 14.8047 163.377 14.846C164.824 15.094 166.436 15.1353 168.213 14.97C170.032 14.7633 171.582 14.536 172.863 14.288C173.69 14.164 174.496 14.102 175.281 14.102C176.067 14.0607 176.459 14.04 176.459 14.04ZM158.045 24.89C156.392 25.0553 155.152 25.6753 154.325 26.75C153.54 27.8247 153.333 29.168 153.705 30.78C153.871 31.524 154.263 32.268 154.883 33.012C155.545 33.7147 156.33 34.2727 157.239 34.686C158.149 35.0993 159.058 35.2647 159.967 35.182C160.877 35.0993 161.683 34.9547 162.385 34.748C163.088 34.5 163.646 34.004 164.059 33.26C164.473 32.516 164.679 31.338 164.679 29.726C164.679 28.114 164.349 26.9567 163.687 26.254C163.067 25.51 162.241 25.076 161.207 24.952C160.215 24.7867 159.161 24.766 158.045 24.89ZM204.728 14.412C207.58 14.784 209.647 15.6107 210.928 16.892C212.251 18.1733 212.995 19.682 213.16 21.418C213.367 23.154 213.181 24.9313 212.602 26.75C212.272 27.7833 211.776 29.106 211.114 30.718C210.494 32.2887 209.833 33.9007 209.13 35.554C208.469 37.2073 207.849 38.6953 207.27 40.018C206.692 41.2993 206.299 42.2087 206.092 42.746C205.431 44.2753 204.646 45.908 203.736 47.644C202.827 49.3387 201.814 50.93 200.698 52.418C199.624 53.906 198.487 55.1253 197.288 56.076C196.131 57.0267 194.994 57.502 193.878 57.502C192.39 57.502 191.171 57.13 190.22 56.386C189.311 55.642 188.629 54.712 188.174 53.596C187.72 52.5213 187.43 51.4673 187.306 50.434C188.381 50.7233 189.373 50.7027 190.282 50.372C191.192 50.0827 191.977 49.6487 192.638 49.07C193.258 48.4913 193.63 47.83 193.754 47.086C193.92 46.342 193.961 45.6807 193.878 45.102C193.672 42.7873 193.031 40.2867 191.956 37.6L182.842 15.032C183.462 14.9493 184.268 14.846 185.26 14.722C186.294 14.5567 187.368 14.536 188.484 14.66C189.642 14.7427 190.716 15.0527 191.708 15.59C192.742 16.086 193.589 16.9333 194.25 18.132C194.498 18.5453 194.788 19.186 195.118 20.054C195.49 20.8807 195.862 21.7693 196.234 22.72C196.648 23.6293 196.978 24.4147 197.226 25.076C197.681 26.068 198.156 26.874 198.652 27.494C199.19 28.0727 199.727 28.3827 200.264 28.424C200.719 28.4653 201.174 28.3 201.628 27.928C202.083 27.5147 202.455 26.998 202.744 26.378C202.992 25.7993 203.282 24.9313 203.612 23.774C203.943 22.6167 204.212 21.6453 204.418 20.86C204.79 19.4133 204.976 18.1733 204.976 17.14C205.018 16.1067 204.935 15.1973 204.728 14.412Z" fill="#73D13D"/>
</g>
</svg>
