<svg width="85" height="77" viewBox="0 0 85 77" fill="none" xmlns="http://www.w3.org/2000/svg">
<g style="mix-blend-mode:hard-light">
<path d="M82.44 65.92C82.504 67.2 82.664 68.448 82.92 69.664C83.24 70.88 83.624 71.776 84.072 72.352C83.496 72.928 82.6 73.6 81.384 74.368C80.232 75.136 78.888 75.744 77.352 76.192C75.88 76.704 74.312 76.928 72.648 76.864C70.152 76.736 68.136 75.68 66.6 73.696C65.128 71.712 64.36 69.248 64.296 66.304C64.296 65.728 64.296 64.672 64.296 63.136C64.296 61.536 64.296 59.84 64.296 58.048C64.296 56.256 64.296 54.784 64.296 53.632C64.296 52.544 64.008 51.488 63.432 50.464C62.92 49.44 62.312 48.832 61.608 48.64C60.648 48.32 59.848 48.896 59.208 50.368C59.08 50.688 58.664 51.488 57.96 52.768C57.256 53.984 56.456 55.424 55.56 57.088C54.728 58.752 53.928 60.416 53.16 62.08C52.456 63.744 51.976 65.184 51.72 66.4C51.464 67.552 51.624 68.256 52.2 68.512C51.944 69.152 51.464 70.08 50.76 71.296C50.12 72.512 49.032 73.568 47.496 74.464C46.024 75.296 43.912 75.616 41.16 75.424C39.688 75.296 37.8 74.4 35.496 72.736C33.192 71.072 30.984 68.032 28.872 63.616C26.888 59.392 25.256 56.544 23.976 55.072C22.76 53.536 21.864 52.832 21.288 52.96C20.776 53.024 20.36 53.376 20.04 54.016C19.784 54.656 19.528 55.552 19.272 56.704C19.144 57.28 19.08 58.24 19.08 59.584C19.08 60.928 19.144 62.432 19.272 64.096C19.4 65.76 19.624 67.328 19.944 68.8C20.328 70.272 20.808 71.392 21.384 72.16C20.872 72.48 19.944 73.024 18.6 73.792C17.32 74.56 15.848 75.264 14.184 75.904C12.584 76.48 11.016 76.768 9.48 76.768C7.176 76.704 5.256 76.096 3.72 74.944C2.184 73.728 1.256 71.36 0.936 67.84C0.872 67.264 0.84 65.632 0.84 62.944C0.84 60.256 0.84 56.864 0.84 52.768C0.84 48.672 0.84 44.288 0.84 39.616C0.84 34.88 0.84 30.208 0.84 25.6C0.84 20.992 0.84 16.768 0.84 12.928C0.904 9.088 0.936 6.016 0.936 3.712C0.936 1.408 0.936 0.255997 0.936 0.255997C1.64 0.127998 2.824 0.0959988 4.488 0.159998C6.152 0.223997 7.976 0.479996 9.96 0.927994C11.944 1.376 13.768 2.112 15.432 3.13599C17.096 4.096 18.248 5.472 18.888 7.264C18.888 7.264 19.176 7.872 19.752 9.088C20.392 10.24 21.224 11.776 22.248 13.696C23.272 15.552 24.36 17.568 25.512 19.744C26.728 21.92 27.88 24.064 28.968 26.176C30.12 28.288 31.112 30.144 31.944 31.744C32.84 33.344 33.448 34.464 33.768 35.104C34.856 36.96 35.88 38.24 36.84 38.944C37.864 39.648 38.952 40.032 40.104 40.096C42.472 40.096 44.744 38.272 46.92 34.624C47.24 34.048 47.88 32.832 48.84 30.976C49.8 29.056 50.92 26.784 52.2 24.16C53.48 21.536 54.792 18.848 56.136 16.096C57.544 13.344 58.824 10.784 59.976 8.41599C61.128 5.984 62.056 4.032 62.76 2.56C63.528 1.024 63.912 0.255997 63.912 0.255997C64.36 0.191998 65 0.159998 65.832 0.159998C66.728 0.0959988 67.688 0.127998 68.712 0.255997C70.504 0.383995 72.392 0.735994 74.376 1.31199C76.424 1.88799 78.184 2.78399 79.656 3.99999C81.192 5.216 82.056 6.848 82.248 8.89599C82.376 9.984 82.472 11.776 82.536 14.272C82.6 16.704 82.632 19.616 82.632 23.008C82.632 26.336 82.632 29.888 82.632 33.664C82.632 37.44 82.6 41.152 82.536 44.8C82.536 48.448 82.504 51.808 82.44 54.88C82.44 57.952 82.44 60.48 82.44 62.464C82.44 64.384 82.44 65.536 82.44 65.92Z" fill="#73D13D"/>
</g>
</svg>
